<svg xmlns="http://www.w3.org/2000/svg" viewBox="0 0 500 500">
  <defs>
    <!-- Background gradient -->
    <linearGradient id="space-bg" x1="0%" y1="0%" x2="100%" y2="100%">
      <stop offset="0%" stop-color="#02041a"/>
      <stop offset="50%" stop-color="#060830"/>
      <stop offset="100%" stop-color="#0a0014"/>
    </linearGradient>

    <!-- Core glow -->
    <radialGradient id="core-glow" cx="50%" cy="45%" r="55%">
      <stop offset="0%" stop-color="#8aafff" stop-opacity="0.003"/>
      <stop offset="30%" stop-color="#6c8cff" stop-opacity="0.0016"/>
      <stop offset="100%" stop-color="transparent" stop-opacity="0"/>
    </radialGradient>

    <!-- Wraith void gradient -->
    <radialGradient id="wraith-void" cx="50%" cy="50%" r="50%">
      <stop offset="0%" stop-color="#000000" stop-opacity="0.6"/>
      <stop offset="50%" stop-color="#6c8cff" stop-opacity="0.05"/>
      <stop offset="100%" stop-color="transparent" stop-opacity="0"/>
    </radialGradient>

    <!-- Filters -->
    <filter id="glow-strong">
      <feGaussianBlur stdDeviation="4.066666666666666" result="blur"/>
      <feMerge><feMergeNode in="blur"/><feMergeNode in="SourceGraphic"/></feMerge>
    </filter>
    <filter id="glow-soft">
      <feGaussianBlur stdDeviation="2" result="blur"/>
      <feMerge><feMergeNode in="blur"/><feMergeNode in="SourceGraphic"/></feMerge>
    </filter>
    <filter id="glow-gem">
      <feGaussianBlur stdDeviation="2.5" result="blur"/>
      <feMerge><feMergeNode in="blur"/><feMergeNode in="SourceGraphic"/></feMerge>
    </filter>
    <filter id="blur-large">
      <feGaussianBlur stdDeviation="40"/>
    </filter>

    <!-- Animations -->
    <style>
      @keyframes pulse-core {
        0%, 100% { opacity: 0.306; }
        50% { opacity: 0.51; }
      }
      @keyframes spin-slow {
        from { transform: rotate(0deg); }
        to { transform: rotate(360deg); }
      }
      @keyframes float {
        0%, 100% { transform: translateY(0); }
        50% { transform: translateY(-3px); }
      }
      @keyframes orbit-drift-0 { 0%, 100% { opacity: 0.15; } 50% { opacity: 0.255; } }
      @keyframes orbit-drift-1 { 0%, 100% { opacity: 0.12; } 50% { opacity: 0.20400000000000001; } }
      @keyframes orbit-drift-2 { 0%, 100% { opacity: 0.1; } 50% { opacity: 0.18359999999999999; } }
      @keyframes gem-pulse { 0%, 100% { opacity: 0.2; } 50% { opacity: 0.5; } }
      @keyframes twinkle { 0%, 100% { opacity: 0.15; } 50% { opacity: 0.6; } }
      .pulse { animation: pulse-core 3s ease-in-out infinite; }
      .pulse-fast { animation: pulse-core 1.8s ease-in-out infinite; }
      .float { animation: float 4s ease-in-out infinite; }
      .orbit-0 { animation: orbit-drift-0 4s ease-in-out infinite; }
      .orbit-1 { animation: orbit-drift-1 5s ease-in-out infinite 0.6s; }
      .orbit-2 { animation: orbit-drift-2 6s ease-in-out infinite 1.2s; }
    </style>
  </defs>

  <!-- Background layers -->
  <rect width="500" height="500" fill="url(#space-bg)"/>
  <rect width="500" height="500" fill="url(#space-bg)"/>
  <ellipse cx="280.8" cy="69.1" rx="187.0" ry="164.3" fill="#8aafff" opacity="0.05034688516519964" filter="url(#blur-large)"/>
  <ellipse cx="192.1" cy="64.7" rx="146.1" ry="80.8" fill="#8aafff" opacity="0.091729826326482" filter="url(#blur-large)"/>
  <ellipse cx="70.5" cy="209.4" rx="183.0" ry="100.7" fill="#8aafff" opacity="0.04298648503609002" filter="url(#blur-large)"/>
  <circle cx="412.7" cy="316.8" r="0.4" fill="#88bbff" opacity="0.4707215920556337"/>
  <circle cx="210.0" cy="122.4" r="1.3" fill="#88bbff" opacity="0.1583427163772285"/>
  <circle cx="469.0" cy="389.4" r="1.0" fill="#88bbff" opacity="0.18133881965186446"/>
  <circle cx="378.9" cy="467.6" r="0.5" fill="#88bbff" opacity="0.48665947953704747"/>
  <circle cx="211.0" cy="300.6" r="1.4" fill="#88bbff" opacity="0.23049752027727663"/>
  <circle cx="164.4" cy="389.2" r="0.3" fill="#88bbff" opacity="0.41431368140038105"/>
  <circle cx="34.8" cy="438.8" r="1.0" fill="#88bbff" opacity="0.6060113900806755"/>
  <circle cx="394.7" cy="225.0" r="1.5" fill="#88bbff" opacity="0.5258024520939216"/>
  <line x1="386.661655202508" y1="9.30711979046464" x2="392.661655202508" y2="9.30711979046464" stroke="#88bbff" stroke-width="0.5" opacity="0.21622222614241765"/>
  <line x1="389.661655202508" y1="6.30711979046464" x2="389.661655202508" y2="12.30711979046464" stroke="#88bbff" stroke-width="0.5" opacity="0.21622222614241765"/>
  <circle cx="389.7" cy="9.3" r="1.6" fill="#88bbff" opacity="0.4324444522848353"/>
  <circle cx="74.7" cy="277.0" r="1.0" fill="#88bbff" opacity="0.48781748439650985"/>
  <circle cx="283.8" cy="201.0" r="0.5" fill="#88bbff" opacity="0.3486038578907028"/>
  <circle cx="409.3" cy="431.8" r="1.1" fill="#88bbff" opacity="0.38525235208217057"/>
  <circle cx="8.4" cy="389.1" r="1.2" fill="#88bbff" opacity="0.38507990979123863"/>
  <circle cx="96.6" cy="160.1" r="0.6" fill="#88bbff" opacity="0.18682003915309905"/>
  <circle cx="85.6" cy="291.5" r="0.8" fill="#88bbff" opacity="0.5057407152839005"/>
  <circle cx="5.8" cy="16.0" r="1.4" fill="#88bbff" opacity="0.2246871936134994"/>
  <circle cx="188.2" cy="406.9" r="0.4" fill="#88bbff" opacity="0.15781144364736974"/>
  <circle cx="437.4" cy="196.5" r="0.4" fill="#88bbff" opacity="0.3974209942156449"/>
  <circle cx="313.3" cy="183.0" r="0.7" fill="#88bbff" opacity="0.38499910172540697"/>
  <circle cx="261.4" cy="394.5" r="0.7" fill="#88bbff" opacity="0.5449411169160158"/>
  <circle cx="483.1" cy="368.0" r="0.8" fill="#88bbff" opacity="0.2101554027525708"/>
  <circle cx="71.7" cy="245.4" r="0.4" fill="#88bbff" opacity="0.641963499574922"/>
  <circle cx="188.0" cy="255.9" r="0.3" fill="#88bbff" opacity="0.24670920157805085"/>
  <circle cx="81.6" cy="31.7" r="0.3" fill="#88bbff" opacity="0.534640165953897"/>
  <circle cx="347.7" cy="205.6" r="0.8" fill="#88bbff" opacity="0.5935116974636913"/>
  <circle cx="286.3" cy="416.8" r="1.3" fill="#88bbff" opacity="0.2755198739236221"/>
  <circle cx="62.2" cy="309.6" r="0.7" fill="#88bbff" opacity="0.39565349554177376"/>
  <circle cx="430.5" cy="120.0" r="0.7" fill="#88bbff" opacity="0.4380821591243148"/>
  <circle cx="12.9" cy="452.3" r="1.1" fill="#88bbff" opacity="0.23066239894833415"/>
  <circle cx="46.4" cy="482.8" r="1.2" fill="#88bbff" opacity="0.564676612126641"/>
  <rect width="500" height="500" fill="url(#core-glow)"/>

  <!-- Frame -->
  <rect x="4" y="4" width="492" height="492" rx="14" fill="none" stroke="#6c8cff" stroke-opacity="0.25" stroke-width="1.5"/>
  <rect x="10" y="10" width="480" height="480" rx="10" fill="none" stroke="#6c8cff" stroke-opacity="0.08" stroke-width="0.5"/>

  <!-- Corner decorations -->
  <circle cx="12" cy="12" r="1.5" fill="#6c8cff" opacity="0.3"/>
  <circle cx="488" cy="12" r="1.5" fill="#6c8cff" opacity="0.3"/>
  <circle cx="12" cy="488" r="1.5" fill="#6c8cff" opacity="0.3"/>
  <circle cx="488" cy="488" r="1.5" fill="#6c8cff" opacity="0.3"/>

  <!-- Orbital rings -->
  <g class="float">
    <ellipse cx="250" cy="250" rx="62.8" ry="22.0"
      fill="none" stroke="#6c8cff" stroke-width="0.8" opacity="0.21"
      stroke-dasharray="2.9920778376981616,5.037162072723731" transform="rotate(114.6 250 250)" class="orbit-0"/>
    <circle cx="223.8" cy="270.0" r="2" fill="#8aafff" opacity="0.4" class="orbital-body-0-0"/>
    <circle cx="276.2" cy="230.0" r="2" fill="#8aafff" opacity="0.4" class="orbital-body-0-1"/>
    <ellipse cx="250" cy="250" rx="94.0" ry="40.4"
      fill="none" stroke="#6c8cff" stroke-width="1.1" opacity="0.27"
      stroke-dasharray="4.77099671587348,5.480603210162371" transform="rotate(216.0 250 250)" class="orbit-1"/>
    <circle cx="173.9" cy="226.3" r="2" fill="#8aafff" opacity="0.4" class="orbital-body-1-0"/>
    <circle cx="326.1" cy="273.7" r="2" fill="#8aafff" opacity="0.4" class="orbital-body-1-1"/>
  </g>

  <!-- Mandala (higher tiers) -->
  <g class="pulse">
    
  </g>

  <!-- Class emblem (the main artwork) -->
  <g class="pulse" opacity="0.706">
    <circle cx="250" cy="225" r="72" fill="url(#wraith-void)" opacity="0.6"/>
    <path d="M 273.9 227.0
      C 308.9 223.7
        332.0 217.6
        325.6 231.3"
      fill="none" stroke="#6c8cff" stroke-width="1.1326629390241578" opacity="0.2" stroke-linecap="round"/>
    <path d="M 272.3 234.0
      C 308.5 217.8
        332.2 229.9
        342.4 252.0"
      fill="none" stroke="#8aafff" stroke-width="0.8" opacity="0.12" stroke-linecap="round"/>
    <path d="M 261.2 246.2
      C 273.6 278.4
        281.8 301.5
        282.6 286.9"
      fill="none" stroke="#6c8cff" stroke-width="1.8561349586816505" opacity="0.24000000000000002" stroke-linecap="round"/>
    <path d="M 254.4 248.6
      C 278.8 275.8
        270.0 305.4
        277.8 319.8"
      fill="none" stroke="#8aafff" stroke-width="0.8" opacity="0.12" stroke-linecap="round"/>
    <path d="M 238.0 245.8
      C 231.2 273.8
        204.9 295.5
        219.9 277.3"
      fill="none" stroke="#6c8cff" stroke-width="1.3286725376965478" opacity="0.28" stroke-linecap="round"/>
    <path d="M 232.4 241.3
      C 236.2 275.4
        194.9 287.9
        185.3 298.6"
      fill="none" stroke="#8aafff" stroke-width="0.8" opacity="0.12" stroke-linecap="round"/>
    <path d="M 226.0 224.8
      C 209.9 229.4
        168.0 220.6
        186.7 224.4"
      fill="none" stroke="#6c8cff" stroke-width="2.130390400532633" opacity="0.32" stroke-linecap="round"/>
    <path d="M 227.1 217.7
      C 210.5 233.3
        169.6 208.4
        149.1 203.6"
      fill="none" stroke="#8aafff" stroke-width="0.8" opacity="0.12" stroke-linecap="round"/>
    <path d="M 236.5 205.2
      C 229.7 185.9
        209.9 154.2
        208.1 163.4"
      fill="none" stroke="#6c8cff" stroke-width="2.050972344703041" opacity="0.36" stroke-linecap="round"/>
    <path d="M 243.0 202.1
      C 225.9 188.1
        221.0 149.0
        209.1 127.5"
      fill="none" stroke="#8aafff" stroke-width="0.8" opacity="0.12" stroke-linecap="round"/>
    <path d="M 259.6 203.0
      C 276.4 174.2
        275.4 167.0
        280.9 153.8"
      fill="none" stroke="#6c8cff" stroke-width="2.1661603172542527" opacity="0.4" stroke-linecap="round"/>
    <path d="M 265.6 206.8
      C 271.1 171.8
        283.8 171.4
        306.8 143.6"
      fill="none" stroke="#8aafff" stroke-width="0.8" opacity="0.12" stroke-linecap="round"/>
    <circle cx="250" cy="225" r="14.399999999999999" fill="#8aafff" opacity="0.3" filter="url(#glow-strong)"/>
    <circle cx="250" cy="225" r="4.8" fill="#000000" opacity="0.8"/>
    <circle cx="281.7" cy="254.3"
      r="1.52231076778844" fill="#8aafff" opacity="0.24215755412587897" class="anim-particle-0"/>
    <circle cx="301.6" cy="269.9"
      r="1.7746253283694386" fill="#8aafff" opacity="0.1503260909812525" class="anim-particle-1"/>
    <circle cx="316.2" cy="275.8"
      r="1.0214079204015434" fill="#8aafff" opacity="0.18563322396948934" class="anim-particle-2"/>
    <circle cx="264.4" cy="286.6"
      r="2.2383973547257483" fill="#8aafff" opacity="0.22187689252896234" class="anim-particle-3"/>
    <circle cx="333.4" cy="224.3"
      r="2.7242279895581305" fill="#8aafff" opacity="0.2035574508481659" class="anim-particle-4"/>
  </g>

  <!-- Center sigil symbol -->
  <text x="250" y="238" text-anchor="middle" font-size="30.166666666666668"
    fill="#8aafff" opacity="0.506" filter="url(#glow-strong)"
    font-family="serif" class="pulse">✦</text>

  <!-- Class keyword badge (with text backing for legibility) -->
  <rect x="195" y="168" width="110" height="26" rx="4" fill="#0a0014" opacity="0.5"/>
  <text x="250" y="178" text-anchor="middle" font-size="10" fill="#6c8cff"
    opacity="0.85" font-family="monospace" font-weight="bold" letter-spacing="3">SHADE</text>
  <text x="250" y="190" text-anchor="middle" font-size="8" fill="#8aafff"
    opacity="0.5" font-family="monospace" letter-spacing="2">WRAITH</text>

  <!-- Prestige number (top) -->
  <text x="250" y="145" text-anchor="middle" font-size="9" fill="#8aafff"
    opacity="0.4" font-family="monospace" letter-spacing="2">PRESTIGE</text>
  <text x="250" y="158" text-anchor="middle" font-size="22" font-weight="bold"
    fill="#6c8cff" filter="url(#glow-soft)" font-family="monospace">
    #001
  </text>

  <!-- Gems -->
  <polygon points="164.18678071250508,224.34168707960058 169.7,231.8 167.4,239.2 164.18678071250508,242.9 160.9,239.2 158.6,231.8"
      fill="#6c8cff" opacity="0.6" filter="url(#glow-gem)"/>
    <polygon points="164.18678071250508,224.34168707960058 158.6,231.8 164.18678071250508,233.60531040289212 169.7,231.8"
      fill="#ffffff" opacity="0.15"/>
    <circle cx="162.3340560478468" cy="230.82622340590464" r="1.8527246646583082" fill="#ffffff" opacity="0.25" class="anim-gem-0"/>
    <polygon points="223.21104219157996,165.71708722550954 230.7,175.7 227.6,185.7 223.21104219157996,190.7 218.8,185.7 215.7,175.7"
      fill="#6c8cff" opacity="0.6" filter="url(#glow-gem)"/>
    <polygon points="223.21104219157996,165.71708722550954 215.7,175.7 223.21104219157996,178.21486341346588 230.7,175.7"
      fill="#ffffff" opacity="0.15"/>
    <circle cx="220.7114869539887" cy="174.46553055707898" r="2.4995552375912666" fill="#ffffff" opacity="0.25" class="anim-gem-1"/>
    <polygon points="167.5429631724573,178.1014143119502 172.2,184.3 170.3,190.5 167.5429631724573,193.6 164.8,190.5 162.9,184.3"
      fill="#6c8cff" opacity="0.6" filter="url(#glow-gem)"/>
    <polygon points="167.5429631724573,178.1014143119502 162.9,184.3 167.5429631724573,185.86994907100976 172.2,184.3"
      fill="#ffffff" opacity="0.15"/>
    <circle cx="165.9892562206454" cy="183.5393886432919" r="1.5537069518119098" fill="#ffffff" opacity="0.25" class="anim-gem-2"/>

  <!-- Tier badge (bottom center) -->
  <rect x="175" y="440" width="150" height="26" rx="13" fill="#0a0014"
    stroke="#6c8cff" stroke-opacity="0.3" stroke-width="1"/>
  <text x="250" y="458" text-anchor="middle" font-size="11" fill="#6c8cff"
    font-family="monospace" font-weight="bold">Initiate</text>

  <!-- Progress dots -->
  <circle cx="205.0" cy="474" r="2" fill="#6c8cff" opacity="0.15" class="pulse-fast"/>

  <!-- Rune text ring (archived path) -->
  <path id="rune-path" d="M 75 410 A 175 55 0 1 1 425 410" fill="none"/>
  <text font-size="6" fill="#6c8cff" opacity="0.2" font-family="monospace">
    <textPath href="#rune-path">
      ✦ INITIATE ✦ WRAITH ✦ PRESTIGE #1 ✦ ✦ ✦ ✦
      ✦ INITIATE ✦ WRAITH ✦ PRESTIGE #1 ✦
    </textPath>
  </text>

  <!-- Corner accent glow particles -->
  <circle cx="15" cy="15" r="2" fill="#6c8cff" opacity="0.3"
      class="pulse-fast" style="animation-delay: 0s"/>
  <circle cx="485" cy="15" r="2" fill="#6c8cff" opacity="0.3"
      class="pulse-fast" style="animation-delay: 0.4s"/>
  <circle cx="15" cy="485" r="2" fill="#6c8cff" opacity="0.3"
      class="pulse-fast" style="animation-delay: 0.8s"/>
  <circle cx="485" cy="485" r="2" fill="#6c8cff" opacity="0.3"
      class="pulse-fast" style="animation-delay: 1.2000000000000002s"/>

  <!-- Ambient floating particles -->
  <circle cx="115.9" cy="158.7" r="1.3878484105225652"
      fill="#88bbff" opacity="0.21282806451199576"
      class="pulse-fast" style="animation-delay: 0.0s"/>
  <circle cx="394.5" cy="204.9" r="1.0472437308635563"
      fill="#88bbff" opacity="0.22515457370318473"
      class="pulse-fast" style="animation-delay: 0.3s"/>
  <circle cx="165.1" cy="373.3" r="1.1212989350315183"
      fill="#88bbff" opacity="0.10461385544622318"
      class="pulse-fast" style="animation-delay: 0.6s"/>
  <circle cx="205.3" cy="128.0" r="1.3495859848335385"
      fill="#88bbff" opacity="0.1105336565640755"
      class="pulse-fast" style="animation-delay: 0.9s"/>
  <circle cx="189.5" cy="113.1" r="1.2419480949174613"
      fill="#88bbff" opacity="0.24450173432705924"
      class="pulse-fast" style="animation-delay: 1.2s"/>
  <circle cx="258.6" cy="325.7" r="1.086155436001718"
      fill="#88bbff" opacity="0.19847481389297172"
      class="pulse-fast" style="animation-delay: 1.5s"/>
  <circle cx="182.6" cy="223.4" r="1.3522473848424852"
      fill="#88bbff" opacity="0.1621331935399212"
      class="pulse-fast" style="animation-delay: 1.8s"/>
  <circle cx="319.6" cy="422.7" r="0.867536443285644"
      fill="#88bbff" opacity="0.14618334099650382"
      class="pulse-fast" style="animation-delay: 2.1s"/>

  <!-- Seed signature (micro watermark bottom-right) -->
  <text x="490" y="492" text-anchor="end" font-size="5" fill="#6c8cff"
    opacity="0.12" font-family="monospace">#999</text>
</svg>