<svg xmlns="http://www.w3.org/2000/svg" viewBox="0 0 500 500">
  <defs>
    <!-- Background gradient -->
    <linearGradient id="space-bg" x1="0%" y1="0%" x2="100%" y2="100%">
      <stop offset="0%" stop-color="#000008"/>
      <stop offset="50%" stop-color="#050520"/>
      <stop offset="100%" stop-color="#0a0030"/>
    </linearGradient>

    <!-- Core glow -->
    <radialGradient id="core-glow" cx="50%" cy="45%" r="55%">
      <stop offset="0%" stop-color="#88bbff" stop-opacity="0.15"/>
      <stop offset="30%" stop-color="#ffffff" stop-opacity="0.08"/>
      <stop offset="100%" stop-color="transparent" stop-opacity="0"/>
    </radialGradient>

    <!-- Wraith void gradient -->
    <radialGradient id="wraith-void" cx="50%" cy="50%" r="50%">
      <stop offset="0%" stop-color="#000000" stop-opacity="0.6"/>
      <stop offset="50%" stop-color="#ffffff" stop-opacity="0.05"/>
      <stop offset="100%" stop-color="transparent" stop-opacity="0"/>
    </radialGradient>

    <!-- Filters -->
    <filter id="glow-strong">
      <feGaussianBlur stdDeviation="10.666666666666668" result="blur"/>
      <feMerge><feMergeNode in="blur"/><feMergeNode in="SourceGraphic"/></feMerge>
    </filter>
    <filter id="glow-soft">
      <feGaussianBlur stdDeviation="2" result="blur"/>
      <feMerge><feMergeNode in="blur"/><feMergeNode in="SourceGraphic"/></feMerge>
    </filter>
    <filter id="glow-gem">
      <feGaussianBlur stdDeviation="2.5" result="blur"/>
      <feMerge><feMergeNode in="blur"/><feMergeNode in="SourceGraphic"/></feMerge>
    </filter>
    <filter id="blur-large">
      <feGaussianBlur stdDeviation="40"/>
    </filter>

    <!-- Animations -->
    <style>
      @keyframes pulse-core {
        0%, 100% { opacity: 0.6; }
        50% { opacity: 1; }
      }
      @keyframes spin-slow {
        from { transform: rotate(0deg); }
        to { transform: rotate(360deg); }
      }
      @keyframes float {
        0%, 100% { transform: translateY(0); }
        50% { transform: translateY(-3px); }
      }
      @keyframes orbit-drift-0 { 0%, 100% { opacity: 0.15; } 50% { opacity: 0.5; } }
      @keyframes orbit-drift-1 { 0%, 100% { opacity: 0.12; } 50% { opacity: 0.4; } }
      @keyframes orbit-drift-2 { 0%, 100% { opacity: 0.1; } 50% { opacity: 0.36; } }
      @keyframes gem-pulse { 0%, 100% { opacity: 0.2; } 50% { opacity: 0.5; } }
      @keyframes twinkle { 0%, 100% { opacity: 0.15; } 50% { opacity: 0.6; } }
      .pulse { animation: pulse-core 3s ease-in-out infinite; }
      .pulse-fast { animation: pulse-core 1.8s ease-in-out infinite; }
      .float { animation: float 4s ease-in-out infinite; }
      .orbit-0 { animation: orbit-drift-0 4s ease-in-out infinite; }
      .orbit-1 { animation: orbit-drift-1 5s ease-in-out infinite 0.6s; }
      .orbit-2 { animation: orbit-drift-2 6s ease-in-out infinite 1.2s; }
    </style>
  </defs>

  <!-- Background layers -->
  <rect width="500" height="500" fill="url(#space-bg)"/>
  <rect width="500" height="500" fill="url(#space-bg)"/>
  <ellipse cx="189.0" cy="79.5" rx="215.0" ry="179.7" fill="#88bbff" opacity="0.08950134910643101" filter="url(#blur-large)"/>
  <ellipse cx="234.0" cy="428.3" rx="233.6" ry="176.9" fill="#88bbff" opacity="0.07765963168349117" filter="url(#blur-large)"/>
  <ellipse cx="149.5" cy="239.3" rx="145.8" ry="157.2" fill="#88bbff" opacity="0.09191049260552972" filter="url(#blur-large)"/>
  <circle cx="321.8" cy="387.3" r="1.5" fill="#ffffff" opacity="0.47645787519868465"/>
  <circle cx="41.0" cy="164.9" r="0.6" fill="#ffffff" opacity="0.526117485226132"/>
  <circle cx="54.5" cy="141.8" r="0.4" fill="#ffffff" opacity="0.4645940989488736"/>
  <circle cx="459.4" cy="175.4" r="0.6" fill="#ffffff" opacity="0.1508790873689577"/>
  <circle cx="338.8" cy="401.5" r="0.4" fill="#ffffff" opacity="0.44862691857852044"/>
  <circle cx="349.2" cy="464.1" r="0.4" fill="#ffffff" opacity="0.43230237774550917"/>
  <circle cx="447.0" cy="292.8" r="1.6" fill="#ffffff" opacity="0.38073375516105445"/>
  <circle cx="134.1" cy="258.6" r="1.4" fill="#ffffff" opacity="0.30272932837251576"/>
  <circle cx="424.3" cy="218.2" r="1.6" fill="#ffffff" opacity="0.22295673235785216"/>
  <circle cx="95.8" cy="376.0" r="0.9" fill="#ffffff" opacity="0.5155750108882785"/>
  <circle cx="215.6" cy="44.2" r="0.8" fill="#ffffff" opacity="0.6386613145936281"/>
  <circle cx="482.5" cy="381.2" r="0.7" fill="#ffffff" opacity="0.15040792592335492"/>
  <circle cx="293.7" cy="81.1" r="1.1" fill="#ffffff" opacity="0.23377118280623108"/>
  <circle cx="410.5" cy="454.4" r="0.6" fill="#ffffff" opacity="0.5335659836186096"/>
  <line x1="147.30057478696108" y1="378.9762483420782" x2="153.30057478696108" y2="378.9762483420782" stroke="#ffffff" stroke-width="0.5" opacity="0.11555906477151438"/>
  <line x1="150.30057478696108" y1="375.9762483420782" x2="150.30057478696108" y2="381.9762483420782" stroke="#ffffff" stroke-width="0.5" opacity="0.11555906477151438"/>
  <circle cx="150.3" cy="379.0" r="1.7" fill="#ffffff" opacity="0.23111812954302877"/>
  <circle cx="468.3" cy="270.8" r="0.3" fill="#ffffff" opacity="0.43683540876954796"/>
  <line x1="347.6804717797786" y1="326.93485640222207" x2="353.6804717797786" y2="326.93485640222207" stroke="#ffffff" stroke-width="0.5" opacity="0.3115491809905507"/>
  <line x1="350.6804717797786" y1="323.93485640222207" x2="350.6804717797786" y2="329.93485640222207" stroke="#ffffff" stroke-width="0.5" opacity="0.3115491809905507"/>
  <circle cx="350.7" cy="326.9" r="1.2" fill="#ffffff" opacity="0.6230983619811014"/>
  <circle cx="481.9" cy="436.5" r="1.0" fill="#ffffff" opacity="0.34937009853310885"/>
  <circle cx="121.3" cy="127.7" r="1.8" fill="#ffffff" opacity="0.37737490839790555"/>
  <circle cx="18.7" cy="178.2" r="0.7" fill="#ffffff" opacity="0.35360954583156856"/>
  <circle cx="131.6" cy="403.5" r="0.8" fill="#ffffff" opacity="0.6340246252715588"/>
  <circle cx="405.1" cy="291.4" r="1.2" fill="#ffffff" opacity="0.233940812619403"/>
  <line x1="486.91978506557643" y1="15.73156441329047" x2="492.91978506557643" y2="15.73156441329047" stroke="#ffffff" stroke-width="0.5" opacity="0.31551076272735373"/>
  <line x1="489.91978506557643" y1="12.73156441329047" x2="489.91978506557643" y2="18.73156441329047" stroke="#ffffff" stroke-width="0.5" opacity="0.31551076272735373"/>
  <circle cx="489.9" cy="15.7" r="1.3" fill="#ffffff" opacity="0.6310215254547075"/>
  <circle cx="179.3" cy="53.8" r="1.2" fill="#ffffff" opacity="0.33893918790854516"/>
  <circle cx="318.8" cy="292.0" r="0.4" fill="#ffffff" opacity="0.31178089543245735"/>
  <line x1="295.21287505095825" y1="143.27865931671113" x2="301.21287505095825" y2="143.27865931671113" stroke="#ffffff" stroke-width="0.5" opacity="0.31599477799609305"/>
  <line x1="298.21287505095825" y1="140.27865931671113" x2="298.21287505095825" y2="146.27865931671113" stroke="#ffffff" stroke-width="0.5" opacity="0.31599477799609305"/>
  <circle cx="298.2" cy="143.3" r="1.2" fill="#ffffff" opacity="0.6319895559921861"/>
  <circle cx="409.0" cy="381.8" r="0.9" fill="#ffffff" opacity="0.6224491249071434"/>
  <line x1="425.3988519059494" y1="216.44402083475143" x2="431.3988519059494" y2="216.44402083475143" stroke="#ffffff" stroke-width="0.5" opacity="0.29476281475508587"/>
  <line x1="428.3988519059494" y1="213.44402083475143" x2="428.3988519059494" y2="219.44402083475143" stroke="#ffffff" stroke-width="0.5" opacity="0.29476281475508587"/>
  <circle cx="428.4" cy="216.4" r="1.3" fill="#ffffff" opacity="0.5895256295101717"/>
  <circle cx="58.6" cy="472.6" r="1.0" fill="#ffffff" opacity="0.5588825961807743"/>
  <circle cx="132.8" cy="236.4" r="0.3" fill="#ffffff" opacity="0.23995047293137758"/>
  <circle cx="70.7" cy="261.5" r="1.3" fill="#ffffff" opacity="0.15305530976038426"/>
  <circle cx="461.7" cy="259.1" r="1.1" fill="#ffffff" opacity="0.4517527182819322"/>
  <circle cx="334.6" cy="112.8" r="1.2" fill="#ffffff" opacity="0.6363750230288133"/>
  <circle cx="94.9" cy="226.1" r="1.3" fill="#ffffff" opacity="0.33600274482741954"/>
  <line x1="349.1381602063775" y1="458.1509767146781" x2="355.1381602063775" y2="458.1509767146781" stroke="#ffffff" stroke-width="0.5" opacity="0.29530205780174584"/>
  <line x1="352.1381602063775" y1="455.1509767146781" x2="352.1381602063775" y2="461.1509767146781" stroke="#ffffff" stroke-width="0.5" opacity="0.29530205780174584"/>
  <circle cx="352.1" cy="458.2" r="1.4" fill="#ffffff" opacity="0.5906041156034917"/>
  <circle cx="298.3" cy="71.8" r="1.4" fill="#ffffff" opacity="0.2361878633731976"/>
  <line x1="277.1076320419088" y1="26.366742411628366" x2="283.1076320419088" y2="26.366742411628366" stroke="#ffffff" stroke-width="0.5" opacity="0.1442888369667344"/>
  <line x1="280.1076320419088" y1="23.366742411628366" x2="280.1076320419088" y2="29.366742411628366" stroke="#ffffff" stroke-width="0.5" opacity="0.1442888369667344"/>
  <circle cx="280.1" cy="26.4" r="1.3" fill="#ffffff" opacity="0.2885776739334688"/>
  <circle cx="484.6" cy="469.6" r="0.9" fill="#ffffff" opacity="0.5465388741344214"/>
  <circle cx="313.0" cy="189.6" r="0.5" fill="#ffffff" opacity="0.22056640507653355"/>
  <circle cx="362.4" cy="79.4" r="0.4" fill="#ffffff" opacity="0.3674043005798012"/>
  <circle cx="273.8" cy="12.0" r="1.3" fill="#ffffff" opacity="0.33146210396662357"/>
  <circle cx="357.0" cy="253.6" r="1.4" fill="#ffffff" opacity="0.16184240449219942"/>
  <circle cx="68.4" cy="31.6" r="0.4" fill="#ffffff" opacity="0.46222866056486966"/>
  <line x1="38.472576179075986" y1="356.66160164168105" x2="44.472576179075986" y2="356.66160164168105" stroke="#ffffff" stroke-width="0.5" opacity="0.07624368170509115"/>
  <line x1="41.472576179075986" y1="353.66160164168105" x2="41.472576179075986" y2="359.66160164168105" stroke="#ffffff" stroke-width="0.5" opacity="0.07624368170509115"/>
  <circle cx="41.5" cy="356.7" r="1.7" fill="#ffffff" opacity="0.1524873634101823"/>
  <circle cx="482.3" cy="226.2" r="1.1" fill="#ffffff" opacity="0.1870483393780887"/>
  <circle cx="467.6" cy="119.5" r="0.8" fill="#ffffff" opacity="0.21485987966880202"/>
  <circle cx="220.0" cy="26.0" r="1.4" fill="#ffffff" opacity="0.1602372255641967"/>
  <circle cx="237.0" cy="391.4" r="1.5" fill="#ffffff" opacity="0.4877885069930926"/>
  <circle cx="194.4" cy="106.8" r="1.5" fill="#ffffff" opacity="0.4850371555425227"/>
  <circle cx="421.0" cy="227.6" r="1.1" fill="#ffffff" opacity="0.47240379636641594"/>
  <circle cx="313.2" cy="237.0" r="1.6" fill="#ffffff" opacity="0.5788165842881426"/>
  <circle cx="387.1" cy="169.5" r="0.7" fill="#ffffff" opacity="0.2625876194564626"/>
  <circle cx="252.8" cy="58.0" r="0.6" fill="#ffffff" opacity="0.526158362836577"/>
  <circle cx="36.1" cy="461.1" r="1.4" fill="#ffffff" opacity="0.20867529835086315"/>
  <line x1="462.546441252809" y1="308.93241891404614" x2="468.546441252809" y2="308.93241891404614" stroke="#ffffff" stroke-width="0.5" opacity="0.19508428375702352"/>
  <line x1="465.546441252809" y1="305.93241891404614" x2="465.546441252809" y2="311.93241891404614" stroke="#ffffff" stroke-width="0.5" opacity="0.19508428375702352"/>
  <circle cx="465.5" cy="308.9" r="1.4" fill="#ffffff" opacity="0.39016856751404705"/>
  <circle cx="74.1" cy="476.0" r="0.4" fill="#ffffff" opacity="0.6207147806184367"/>
  <circle cx="440.7" cy="460.5" r="0.8" fill="#ffffff" opacity="0.21811311142519116"/>
  <circle cx="405.7" cy="414.6" r="0.6" fill="#ffffff" opacity="0.6041510846465826"/>
  <circle cx="20.9" cy="327.1" r="1.7" fill="#ffffff" opacity="0.3311329042539001"/>
  <circle cx="285.3" cy="123.1" r="0.7" fill="#ffffff" opacity="0.6148652877658606"/>
  <circle cx="136.6" cy="356.6" r="0.4" fill="#ffffff" opacity="0.6305380343459547"/>
  <circle cx="216.1" cy="198.4" r="1.8" fill="#ffffff" opacity="0.6493999282596633"/>
  <circle cx="266.1" cy="303.2" r="1.5" fill="#ffffff" opacity="0.6126881442964077"/>
  <circle cx="430.8" cy="40.2" r="1.4" fill="#ffffff" opacity="0.6473157207714394"/>
  <line x1="6.31671382393688" y1="57.39138603210449" x2="12.31671382393688" y2="57.39138603210449" stroke="#ffffff" stroke-width="0.5" opacity="0.26836425728397445"/>
  <line x1="9.31671382393688" y1="54.39138603210449" x2="9.31671382393688" y2="60.39138603210449" stroke="#ffffff" stroke-width="0.5" opacity="0.26836425728397445"/>
  <circle cx="9.3" cy="57.4" r="1.3" fill="#ffffff" opacity="0.5367285145679489"/>
  <circle cx="275.2" cy="455.9" r="0.5" fill="#ffffff" opacity="0.5821285790065304"/>
  <circle cx="11.3" cy="385.2" r="1.0" fill="#ffffff" opacity="0.40985789531841876"/>
  <circle cx="107.4" cy="34.9" r="1.0" fill="#ffffff" opacity="0.24932040749117731"/>
  <circle cx="354.5" cy="278.3" r="1.0" fill="#ffffff" opacity="0.17695656602736562"/>
  <line x1="150.28655872493982" y1="17.88553490769118" x2="156.28655872493982" y2="17.88553490769118" stroke="#ffffff" stroke-width="0.5" opacity="0.2137966795009561"/>
  <line x1="153.28655872493982" y1="14.88553490769118" x2="153.28655872493982" y2="20.88553490769118" stroke="#ffffff" stroke-width="0.5" opacity="0.2137966795009561"/>
  <circle cx="153.3" cy="17.9" r="1.6" fill="#ffffff" opacity="0.4275933590019122"/>
  <line x1="77.5283585912548" y1="156.1260460363701" x2="83.5283585912548" y2="156.1260460363701" stroke="#ffffff" stroke-width="0.5" opacity="0.16516253048321233"/>
  <line x1="80.5283585912548" y1="153.1260460363701" x2="80.5283585912548" y2="159.1260460363701" stroke="#ffffff" stroke-width="0.5" opacity="0.16516253048321233"/>
  <circle cx="80.5" cy="156.1" r="1.2" fill="#ffffff" opacity="0.33032506096642467"/>
  <circle cx="300.2" cy="472.1" r="1.4" fill="#ffffff" opacity="0.4264175921911374"/>
  <line x1="378.9836048851721" y1="405.44871132355183" x2="384.9836048851721" y2="405.44871132355183" stroke="#ffffff" stroke-width="0.5" opacity="0.25241551727522166"/>
  <line x1="381.9836048851721" y1="402.44871132355183" x2="381.9836048851721" y2="408.44871132355183" stroke="#ffffff" stroke-width="0.5" opacity="0.25241551727522166"/>
  <circle cx="382.0" cy="405.4" r="1.7" fill="#ffffff" opacity="0.5048310345504433"/>
  <circle cx="120.6" cy="375.1" r="0.5" fill="#ffffff" opacity="0.30553589223418387"/>
  <line x1="47.876657280605286" y1="398.8979744282551" x2="53.876657280605286" y2="398.8979744282551" stroke="#ffffff" stroke-width="0.5" opacity="0.29476064069895075"/>
  <line x1="50.876657280605286" y1="395.8979744282551" x2="50.876657280605286" y2="401.8979744282551" stroke="#ffffff" stroke-width="0.5" opacity="0.29476064069895075"/>
  <circle cx="50.9" cy="398.9" r="1.4" fill="#ffffff" opacity="0.5895212813979015"/>
  <circle cx="256.9" cy="114.7" r="0.6" fill="#ffffff" opacity="0.26406159610487523"/>
  <circle cx="189.7" cy="239.3" r="1.2" fill="#ffffff" opacity="0.33099228048231455"/>
  <circle cx="365.2" cy="58.0" r="1.2" fill="#ffffff" opacity="0.4847273422405124"/>
  <circle cx="32.7" cy="70.8" r="0.7" fill="#ffffff" opacity="0.488745086803101"/>
  <circle cx="121.9" cy="40.5" r="0.8" fill="#ffffff" opacity="0.46278997857589277"/>
  <rect width="500" height="500" fill="url(#core-glow)"/>

  <!-- Frame -->
  <rect x="4" y="4" width="492" height="492" rx="14" fill="none" stroke="#ffffff" stroke-opacity="0.25" stroke-width="1.5"/>
  <rect x="3" y="3" width="494" height="494" rx="14" fill="none" stroke="#ffffff" stroke-opacity="0.5" stroke-width="3"/>
  <rect x="12" y="12" width="476" height="476" rx="10" fill="none" stroke="#ffffff" stroke-opacity="0.2" stroke-width="1"/>
  <rect x="18" y="18" width="464" height="464" rx="6" fill="none" stroke="#ffffff" stroke-opacity="0.08" stroke-width="0.5"/>
  <polygon points="12.0,2.0 14.4,8.8 21.5,8.9 15.8,13.2 17.9,20.1 12.0,16.0 6.1,20.1 8.2,13.2 2.5,8.9 9.6,8.8" fill="#ffffff" opacity="0.15"/>
  <polygon points="488.0,2.0 490.4,8.8 497.5,8.9 491.8,13.2 493.9,20.1 488.0,16.0 482.1,20.1 484.2,13.2 478.5,8.9 485.6,8.8" fill="#ffffff" opacity="0.15"/>
  <polygon points="12.0,478.0 14.4,484.8 21.5,484.9 15.8,489.2 17.9,496.1 12.0,492.0 6.1,496.1 8.2,489.2 2.5,484.9 9.6,484.8" fill="#ffffff" opacity="0.15"/>
  <polygon points="488.0,478.0 490.4,484.8 497.5,484.9 491.8,489.2 493.9,496.1 488.0,492.0 482.1,496.1 484.2,489.2 478.5,484.9 485.6,484.8" fill="#ffffff" opacity="0.15"/>

  <!-- Corner decorations -->
  <polygon points="12.0,7.0 13.2,10.4 16.8,10.5 13.9,12.6 14.9,16.0 12.0,14.0 9.1,16.0 10.1,12.6 7.2,10.5 10.8,10.4" fill="#ffffff" opacity="0.3"/>
  <polygon points="488.0,7.0 489.2,10.4 492.8,10.5 489.9,12.6 490.9,16.0 488.0,14.0 485.1,16.0 486.1,12.6 483.2,10.5 486.8,10.4" fill="#ffffff" opacity="0.3"/>
  <polygon points="12.0,483.0 13.2,486.4 16.8,486.5 13.9,488.6 14.9,492.0 12.0,490.0 9.1,492.0 10.1,488.6 7.2,486.5 10.8,486.4" fill="#ffffff" opacity="0.3"/>
  <polygon points="488.0,483.0 489.2,486.4 492.8,486.5 489.9,488.6 490.9,492.0 488.0,490.0 485.1,492.0 486.1,488.6 483.2,486.5 486.8,486.4" fill="#ffffff" opacity="0.3"/>

  <!-- Orbital rings -->
  <g class="float">
    <ellipse cx="250" cy="250" rx="57.3" ry="20.0"
      fill="none" stroke="#ffffff" stroke-width="0.8" opacity="0.21"
      stroke-dasharray="6.2356599741615355,6.993740791454911" transform="rotate(135.6 250 250)" class="orbit-0"/>
    <circle cx="209.1" cy="264.0" r="2" fill="#88bbff" opacity="0.4" class="orbital-body-0-0"/>
    <circle cx="290.9" cy="236.0" r="2" fill="#88bbff" opacity="0.4" class="orbital-body-0-1"/>
    <ellipse cx="250" cy="250" rx="95.2" ry="40.9"
      fill="none" stroke="#ffffff" stroke-width="1.1" opacity="0.27"
      stroke-dasharray="4.146030550356954,4.899614612106234" transform="rotate(353.2 250 250)" class="orbit-1"/>
    <circle cx="344.5" cy="245.1" r="2" fill="#88bbff" opacity="0.4" class="orbital-body-1-0"/>
    <circle cx="155.5" cy="254.9" r="2" fill="#88bbff" opacity="0.4" class="orbital-body-1-1"/>
    <ellipse cx="250" cy="250" rx="128.8" ry="65.7"
      fill="none" stroke="#ffffff" stroke-width="1.4" opacity="0.32999999999999996"
      stroke-dasharray="2.7095662131905556,6.288849458331242" transform="rotate(389.7 250 250)" class="orbit-2"/>
    <circle cx="361.9" cy="282.5" r="2" fill="#88bbff" opacity="0.4" class="orbital-body-2-0"/>
    <circle cx="138.1" cy="217.5" r="2" fill="#88bbff" opacity="0.4" class="orbital-body-2-1"/>
    <ellipse cx="250" cy="250" rx="163.3" ry="96.4"
      fill="none" stroke="#ffffff" stroke-width="1.7" opacity="0.39"
      stroke-dasharray="3.405665757600218,4.332843725103885" transform="rotate(341.5 250 250)" class="orbit-3"/>
    <circle cx="404.9" cy="219.4" r="2" fill="#88bbff" opacity="0.4" class="orbital-body-3-0"/>
    <circle cx="95.1" cy="280.6" r="2" fill="#88bbff" opacity="0.4" class="orbital-body-3-1"/>
  </g>

  <!-- Mandala (higher tiers) -->
  <g class="pulse">
    <path d="M 298.6 250.0
      Q 308.2 251.7
        317.8 250.0"
      fill="none" stroke="#ffffff" stroke-width="1" opacity="0.12" stroke-linecap="round"/>
    <path d="M 317.8 250.0 Q 327.4 275.1 304.8 289.8"
      fill="none" stroke="#ffffff" stroke-width="0.5" opacity="0.06"/>
    <path d="M 289.4 278.6
      Q 299.6 280.5
        304.8 289.8"
      fill="none" stroke="#ffffff" stroke-width="1" opacity="0.12" stroke-linecap="round"/>
    <path d="M 304.8 289.8 Q 297.8 315.8 270.9 314.5"
      fill="none" stroke="#ffffff" stroke-width="0.5" opacity="0.06"/>
    <path d="M 265.0 296.3
      Q 264.6 306.3
        270.9 314.5"
      fill="none" stroke="#ffffff" stroke-width="1" opacity="0.12" stroke-linecap="round"/>
    <path d="M 270.9 314.5 Q 250.0 331.4 229.1 314.5"
      fill="none" stroke="#ffffff" stroke-width="0.5" opacity="0.06"/>
    <path d="M 235.0 296.3
      Q 224.2 302.2
        229.1 314.5"
      fill="none" stroke="#ffffff" stroke-width="1" opacity="0.12" stroke-linecap="round"/>
    <path d="M 229.1 314.5 Q 202.2 315.8 195.2 289.8"
      fill="none" stroke="#ffffff" stroke-width="0.5" opacity="0.06"/>
    <path d="M 210.6 278.6
      Q 199.8 279.4
        195.2 289.8"
      fill="none" stroke="#ffffff" stroke-width="1" opacity="0.12" stroke-linecap="round"/>
    <path d="M 195.2 289.8 Q 172.6 275.1 182.2 250.0"
      fill="none" stroke="#ffffff" stroke-width="0.5" opacity="0.06"/>
    <path d="M 201.4 250.0
      Q 191.8 250.8
        182.2 250.0"
      fill="none" stroke="#ffffff" stroke-width="1" opacity="0.12" stroke-linecap="round"/>
    <path d="M 182.2 250.0 Q 172.6 224.9 195.2 210.2"
      fill="none" stroke="#ffffff" stroke-width="0.5" opacity="0.06"/>
    <path d="M 210.6 221.4
      Q 198.9 222.1
        195.2 210.2"
      fill="none" stroke="#ffffff" stroke-width="1" opacity="0.12" stroke-linecap="round"/>
    <path d="M 195.2 210.2 Q 202.2 184.2 229.1 185.5"
      fill="none" stroke="#ffffff" stroke-width="0.5" opacity="0.06"/>
    <path d="M 235.0 203.7
      Q 234.2 194.0
        229.1 185.5"
      fill="none" stroke="#ffffff" stroke-width="1" opacity="0.12" stroke-linecap="round"/>
    <path d="M 229.1 185.5 Q 250.0 168.6 270.9 185.5"
      fill="none" stroke="#ffffff" stroke-width="0.5" opacity="0.06"/>
    <path d="M 265.0 203.7
      Q 275.8 197.8
        270.9 185.5"
      fill="none" stroke="#ffffff" stroke-width="1" opacity="0.12" stroke-linecap="round"/>
    <path d="M 270.9 185.5 Q 297.8 184.2 304.8 210.2"
      fill="none" stroke="#ffffff" stroke-width="0.5" opacity="0.06"/>
    <path d="M 289.4 221.4
      Q 295.1 213.2
        304.8 210.2"
      fill="none" stroke="#ffffff" stroke-width="1" opacity="0.12" stroke-linecap="round"/>
    <path d="M 304.8 210.2 Q 327.4 224.9 317.8 250.0"
      fill="none" stroke="#ffffff" stroke-width="0.5" opacity="0.06"/>
    <circle cx="250" cy="250" r="48.64070329815149" fill="none" stroke="#ffffff" stroke-width="0.8" opacity="0.1" stroke-dasharray="2,4"/>
  </g>

  <!-- Class emblem (the main artwork) -->
  <g class="pulse" opacity="1">
    <path d="M 250 141
    L 328 213
    L 304 303
    L 250 321
    L 196 303
    L 172 213 Z"
    fill="none" stroke="#ffffff" stroke-width="2" opacity="0.4"/>
    <line x1="250" y1="165" x2="250" y2="297" stroke="#ffffff" stroke-width="1.5" opacity="0.25"/>
    <line x1="202" y1="225" x2="298" y2="225" stroke="#ffffff" stroke-width="1.5" opacity="0.25"/>
    <polygon points="250,195 268,225 250,255 232,225"
    fill="#ffffff" opacity="0.15" stroke="#88bbff" stroke-width="1.5" opacity="0.4" filter="url(#glow-soft)"/>
    <line x1="208" y1="171" x2="292" y2="171" stroke="#ffffff" stroke-width="1" opacity="0.2"/>
    <line x1="190" y1="201" x2="310" y2="201" stroke="#ffffff" stroke-width="0.8" opacity="0.15"/>
    <circle cx="292.3" cy="283.2" r="2" fill="#ffffff" opacity="0.3"/>
    <circle cx="207.7" cy="283.2" r="2" fill="#ffffff" opacity="0.3"/>
    <circle cx="250" cy="225" r="9.6" fill="#88bbff" opacity="0.4" filter="url(#glow-strong)"/>
  </g>

  <!-- Center sigil symbol -->
  <text x="250" y="238" text-anchor="middle" font-size="46.66666666666667"
    fill="#88bbff" opacity="0.8" filter="url(#glow-strong)"
    font-family="serif" class="pulse">∞</text>

  <!-- Class keyword badge (with text backing for legibility) -->
  <rect x="195" y="168" width="110" height="26" rx="4" fill="#0a0030" opacity="0.5"/>
  <text x="250" y="178" text-anchor="middle" font-size="10" fill="#ffffff"
    opacity="0.85" font-family="monospace" font-weight="bold" letter-spacing="3">VANGUARD</text>
  <text x="250" y="190" text-anchor="middle" font-size="8" fill="#88bbff"
    opacity="0.5" font-family="monospace" letter-spacing="2">AEGIS</text>

  <!-- Prestige number (top) -->
  <text x="250" y="145" text-anchor="middle" font-size="9" fill="#88bbff"
    opacity="0.4" font-family="monospace" letter-spacing="2">PRESTIGE</text>
  <text x="250" y="158" text-anchor="middle" font-size="22" font-weight="bold"
    fill="#ffffff" filter="url(#glow-soft)" font-family="monospace">
    #100
  </text>

  <!-- Gems -->
  <polygon points="202.59619599321954,311.7324913639244 209.2,320.6 206.5,329.4 202.59619599321954,333.9 198.7,329.4 196.0,320.6"
      fill="#ffffff" opacity="0.6" filter="url(#glow-gem)"/>
    <polygon points="202.59619599321954,311.7324913639244 196.0,320.6 202.59619599321954,322.7970984905627 209.2,320.6"
      fill="#ffffff" opacity="0.15"/>
    <circle cx="200.38327456789187" cy="319.4777163525712" r="2.2129214253276586" fill="#ffffff" opacity="0.25" class="anim-gem-0"/>
    <polygon points="245.05354412830846,336.1434596096559 248.8,341.2 247.2,346.2 245.05354412830846,348.7 242.9,346.2 241.3,341.2"
      fill="#ffffff" opacity="0.6" filter="url(#glow-gem)"/>
    <polygon points="245.05354412830846,336.1434596096559 241.3,341.2 245.05354412830846,342.41764821013646 248.8,341.2"
      fill="#ffffff" opacity="0.15"/>
    <circle cx="243.79870640821235" cy="340.5353916299923" r="1.2548377200961114" fill="#ffffff" opacity="0.25" class="anim-gem-1"/>
    <polygon points="327.6596744621324,298.2731208290141 332.3,304.5 330.4,310.7 327.6596744621324,313.7 325.0,310.7 323.0,304.5"
      fill="#ffffff" opacity="0.6" filter="url(#glow-gem)"/>
    <polygon points="327.6596744621324,298.2731208290141 323.0,304.5 327.6596744621324,306.01048314861765 332.3,304.5"
      fill="#ffffff" opacity="0.15"/>
    <circle cx="326.1122019982117" cy="303.6892744527366" r="1.5474724639207125" fill="#ffffff" opacity="0.25" class="anim-gem-2"/>

  <!-- Tier badge (bottom center) -->
  <rect x="175" y="440" width="150" height="26" rx="13" fill="#0a0030"
    stroke="#ffffff" stroke-opacity="0.3" stroke-width="1"/>
  <text x="250" y="458" text-anchor="middle" font-size="11" fill="#ffffff"
    font-family="monospace" font-weight="bold">NEXUS</text>

  <!-- Progress dots -->
  <circle cx="205.0" cy="474" r="2" fill="#ffffff" opacity="0.15" class="pulse-fast"/>
    <circle cx="215.0" cy="474" r="2" fill="#ffffff" opacity="0.22" class=""/>
    <circle cx="225.0" cy="474" r="2" fill="#ffffff" opacity="0.29" class="pulse-fast"/>
    <circle cx="235.0" cy="474" r="2" fill="#ffffff" opacity="0.36" class=""/>
    <circle cx="245.0" cy="474" r="2" fill="#ffffff" opacity="0.43" class="pulse-fast"/>
    <circle cx="255.0" cy="474" r="2" fill="#ffffff" opacity="0.50" class=""/>
    <circle cx="265.0" cy="474" r="2" fill="#ffffff" opacity="0.57" class="pulse-fast"/>
    <circle cx="275.0" cy="474" r="2" fill="#ffffff" opacity="0.64" class=""/>
    <circle cx="285.0" cy="474" r="2" fill="#ffffff" opacity="0.71" class="pulse-fast"/>
    <circle cx="295.0" cy="474" r="2" fill="#ffffff" opacity="0.78" class=""/>

  <!-- Rune text ring (archived path) -->
  <path id="rune-path" d="M 75 410 A 175 55 0 1 1 425 410" fill="none"/>
  <text font-size="6" fill="#ffffff" opacity="0.2" font-family="monospace">
    <textPath href="#rune-path">
      ✦ NEXUS ✦ AEGIS ✦ PRESTIGE #100 ✦ ✦ ✦ ✦
      ✦ NEXUS ✦ AEGIS ✦ PRESTIGE #100 ✦
    </textPath>
  </text>

  <!-- Corner accent glow particles -->
  <circle cx="15" cy="15" r="2" fill="#ffffff" opacity="0.3"
      class="pulse-fast" style="animation-delay: 0s"/>
  <circle cx="485" cy="15" r="2" fill="#ffffff" opacity="0.3"
      class="pulse-fast" style="animation-delay: 0.4s"/>
  <circle cx="15" cy="485" r="2" fill="#ffffff" opacity="0.3"
      class="pulse-fast" style="animation-delay: 0.8s"/>
  <circle cx="485" cy="485" r="2" fill="#ffffff" opacity="0.3"
      class="pulse-fast" style="animation-delay: 1.2000000000000002s"/>

  <!-- Ambient floating particles -->
  <circle cx="395.7" cy="36.2" r="1.478626718511805"
      fill="#ffffff" opacity="0.12258479676675052"
      class="pulse-fast" style="animation-delay: 0.0s"/>
  <circle cx="236.5" cy="199.5" r="1.3014859328977764"
      fill="#ffffff" opacity="0.17494807128096002"
      class="pulse-fast" style="animation-delay: 0.3s"/>
  <circle cx="384.3" cy="229.2" r="0.7859375830739737"
      fill="#ffffff" opacity="0.1773953591939062"
      class="pulse-fast" style="animation-delay: 0.6s"/>
  <circle cx="141.9" cy="255.8" r="1.2941773801576346"
      fill="#ffffff" opacity="0.19046467466978356"
      class="pulse-fast" style="animation-delay: 0.9s"/>
  <circle cx="456.6" cy="138.5" r="1.2179786872584373"
      fill="#ffffff" opacity="0.10436425462830812"
      class="pulse-fast" style="animation-delay: 1.2s"/>
  <circle cx="341.7" cy="367.3" r="0.5676281179767102"
      fill="#ffffff" opacity="0.21252449303865434"
      class="pulse-fast" style="animation-delay: 1.5s"/>
  <circle cx="268.8" cy="411.8" r="1.0911909921560436"
      fill="#ffffff" opacity="0.17744826405541972"
      class="pulse-fast" style="animation-delay: 1.8s"/>
  <circle cx="185.2" cy="284.4" r="1.1350642854813486"
      fill="#ffffff" opacity="0.1539458333980292"
      class="pulse-fast" style="animation-delay: 2.1s"/>

  <!-- Seed signature (micro watermark bottom-right) -->
  <text x="490" y="492" text-anchor="end" font-size="5" fill="#ffffff"
    opacity="0.12" font-family="monospace">#12345</text>
</svg>