<svg xmlns="http://www.w3.org/2000/svg" viewBox="0 0 500 500">
  <defs>
    <!-- Background gradient -->
    <linearGradient id="space-bg" x1="0%" y1="0%" x2="100%" y2="100%">
      <stop offset="0%" stop-color="#1a0005"/>
      <stop offset="50%" stop-color="#2a0008"/>
      <stop offset="100%" stop-color="#35000a"/>
    </linearGradient>

    <!-- Core glow -->
    <radialGradient id="core-glow" cx="50%" cy="45%" r="55%">
      <stop offset="0%" stop-color="#ff6666" stop-opacity="0.15"/>
      <stop offset="30%" stop-color="#ff4444" stop-opacity="0.08"/>
      <stop offset="100%" stop-color="transparent" stop-opacity="0"/>
    </radialGradient>

    <!-- Wraith void gradient -->
    <radialGradient id="wraith-void" cx="50%" cy="50%" r="50%">
      <stop offset="0%" stop-color="#000000" stop-opacity="0.6"/>
      <stop offset="50%" stop-color="#ff4444" stop-opacity="0.05"/>
      <stop offset="100%" stop-color="transparent" stop-opacity="0"/>
    </radialGradient>

    <!-- Filters -->
    <filter id="glow-strong">
      <feGaussianBlur stdDeviation="7.4" result="blur"/>
      <feMerge><feMergeNode in="blur"/><feMergeNode in="SourceGraphic"/></feMerge>
    </filter>
    <filter id="glow-soft">
      <feGaussianBlur stdDeviation="2" result="blur"/>
      <feMerge><feMergeNode in="blur"/><feMergeNode in="SourceGraphic"/></feMerge>
    </filter>
    <filter id="glow-gem">
      <feGaussianBlur stdDeviation="2.5" result="blur"/>
      <feMerge><feMergeNode in="blur"/><feMergeNode in="SourceGraphic"/></feMerge>
    </filter>
    <filter id="blur-large">
      <feGaussianBlur stdDeviation="40"/>
    </filter>

    <!-- Animations -->
    <style>
      @keyframes pulse-core {
        0%, 100% { opacity: 0.6; }
        50% { opacity: 1; }
      }
      @keyframes spin-slow {
        from { transform: rotate(0deg); }
        to { transform: rotate(360deg); }
      }
      @keyframes float {
        0%, 100% { transform: translateY(0); }
        50% { transform: translateY(-3px); }
      }
      @keyframes orbit-drift-0 { 0%, 100% { opacity: 0.15; } 50% { opacity: 0.5; } }
      @keyframes orbit-drift-1 { 0%, 100% { opacity: 0.12; } 50% { opacity: 0.4; } }
      @keyframes orbit-drift-2 { 0%, 100% { opacity: 0.1; } 50% { opacity: 0.36; } }
      @keyframes gem-pulse { 0%, 100% { opacity: 0.2; } 50% { opacity: 0.5; } }
      @keyframes twinkle { 0%, 100% { opacity: 0.15; } 50% { opacity: 0.6; } }
      .pulse { animation: pulse-core 3s ease-in-out infinite; }
      .pulse-fast { animation: pulse-core 1.8s ease-in-out infinite; }
      .float { animation: float 4s ease-in-out infinite; }
      .orbit-0 { animation: orbit-drift-0 4s ease-in-out infinite; }
      .orbit-1 { animation: orbit-drift-1 5s ease-in-out infinite 0.6s; }
      .orbit-2 { animation: orbit-drift-2 6s ease-in-out infinite 1.2s; }
    </style>
  </defs>

  <!-- Background layers -->
  <rect width="500" height="500" fill="url(#space-bg)"/>
  <rect width="500" height="500" fill="url(#space-bg)"/>
  <ellipse cx="213.0" cy="386.4" rx="249.4" ry="104.9" fill="#ff6666" opacity="0.08226992164272814" filter="url(#blur-large)"/>
  <ellipse cx="166.9" cy="383.9" rx="158.6" ry="167.5" fill="#ff6666" opacity="0.05887060474604368" filter="url(#blur-large)"/>
  <circle cx="283.9" cy="413.6" r="0.4" fill="#ff4444" opacity="0.539342593960464"/>
  <circle cx="60.5" cy="458.9" r="1.1" fill="#ff4444" opacity="0.4009858210105449"/>
  <circle cx="171.1" cy="42.6" r="0.6" fill="#ff4444" opacity="0.3853042338509113"/>
  <circle cx="261.8" cy="108.4" r="0.5" fill="#ff4444" opacity="0.28998178206384184"/>
  <circle cx="217.8" cy="25.7" r="0.4" fill="#ff4444" opacity="0.5824132394976914"/>
  <circle cx="407.0" cy="397.8" r="1.2" fill="#ff4444" opacity="0.4345573169179261"/>
  <circle cx="129.8" cy="415.4" r="0.9" fill="#ff4444" opacity="0.3099013706436381"/>
  <circle cx="206.7" cy="322.1" r="0.9" fill="#ff4444" opacity="0.26107284901663663"/>
  <circle cx="405.3" cy="14.8" r="1.4" fill="#ff4444" opacity="0.276144819194451"/>
  <circle cx="62.3" cy="206.4" r="1.6" fill="#ff4444" opacity="0.5729287983616814"/>
  <circle cx="88.7" cy="333.1" r="1.4" fill="#ff4444" opacity="0.319104041880928"/>
  <circle cx="482.9" cy="121.4" r="1.1" fill="#ff4444" opacity="0.6422637402778492"/>
  <circle cx="469.6" cy="158.3" r="0.3" fill="#ff4444" opacity="0.43726331458892675"/>
  <circle cx="316.6" cy="293.7" r="0.5" fill="#ff4444" opacity="0.3639535885071382"/>
  <line x1="300.11251134611666" y1="318.32188113359734" x2="306.11251134611666" y2="318.32188113359734" stroke="#ff4444" stroke-width="0.5" opacity="0.2937274172320031"/>
  <line x1="303.11251134611666" y1="315.32188113359734" x2="303.11251134611666" y2="321.32188113359734" stroke="#ff4444" stroke-width="0.5" opacity="0.2937274172320031"/>
  <circle cx="303.1" cy="318.3" r="1.6" fill="#ff4444" opacity="0.5874548344640061"/>
  <circle cx="438.1" cy="108.6" r="1.5" fill="#ff4444" opacity="0.2325526756234467"/>
  <line x1="43.020446952898055" y1="361.6392529197037" x2="49.020446952898055" y2="361.6392529197037" stroke="#ff4444" stroke-width="0.5" opacity="0.10931754233315587"/>
  <line x1="46.020446952898055" y1="358.6392529197037" x2="46.020446952898055" y2="364.6392529197037" stroke="#ff4444" stroke-width="0.5" opacity="0.10931754233315587"/>
  <circle cx="46.0" cy="361.6" r="1.2" fill="#ff4444" opacity="0.21863508466631174"/>
  <circle cx="389.3" cy="140.2" r="1.5" fill="#ff4444" opacity="0.5469861752120778"/>
  <circle cx="16.6" cy="224.0" r="1.4" fill="#ff4444" opacity="0.1876145534683019"/>
  <circle cx="422.0" cy="464.8" r="0.4" fill="#ff4444" opacity="0.403349022124894"/>
  <line x1="294.56500500952825" y1="228.74843196710572" x2="300.56500500952825" y2="228.74843196710572" stroke="#ff4444" stroke-width="0.5" opacity="0.17822078171884642"/>
  <line x1="297.56500500952825" y1="225.74843196710572" x2="297.56500500952825" y2="231.74843196710572" stroke="#ff4444" stroke-width="0.5" opacity="0.17822078171884642"/>
  <circle cx="297.6" cy="228.7" r="1.4" fill="#ff4444" opacity="0.35644156343769284"/>
  <line x1="423.504356469959" y1="149.27019916241989" x2="429.504356469959" y2="149.27019916241989" stroke="#ff4444" stroke-width="0.5" opacity="0.13014563550241293"/>
  <line x1="426.504356469959" y1="146.27019916241989" x2="426.504356469959" y2="152.27019916241989" stroke="#ff4444" stroke-width="0.5" opacity="0.13014563550241293"/>
  <circle cx="426.5" cy="149.3" r="1.2" fill="#ff4444" opacity="0.26029127100482585"/>
  <circle cx="65.2" cy="290.5" r="0.4" fill="#ff4444" opacity="0.3626175058074296"/>
  <circle cx="186.3" cy="410.8" r="0.4" fill="#ff4444" opacity="0.28469424715731295"/>
  <circle cx="228.6" cy="81.1" r="0.7" fill="#ff4444" opacity="0.5719184395624325"/>
  <line x1="335.18181050475687" y1="19.03992174891755" x2="341.18181050475687" y2="19.03992174891755" stroke="#ff4444" stroke-width="0.5" opacity="0.08255139219108969"/>
  <line x1="338.18181050475687" y1="16.03992174891755" x2="338.18181050475687" y2="22.03992174891755" stroke="#ff4444" stroke-width="0.5" opacity="0.08255139219108969"/>
  <circle cx="338.2" cy="19.0" r="1.7" fill="#ff4444" opacity="0.16510278438217937"/>
  <circle cx="357.4" cy="399.0" r="1.7" fill="#ff4444" opacity="0.23439763577189296"/>
  <circle cx="143.0" cy="369.3" r="0.6" fill="#ff4444" opacity="0.48780239836778494"/>
  <circle cx="455.2" cy="305.0" r="0.8" fill="#ff4444" opacity="0.36238825947511943"/>
  <circle cx="307.2" cy="241.9" r="1.1" fill="#ff4444" opacity="0.3889337244676426"/>
  <line x1="215.39593946002424" y1="143.2256110222079" x2="221.39593946002424" y2="143.2256110222079" stroke="#ff4444" stroke-width="0.5" opacity="0.31378777981735767"/>
  <line x1="218.39593946002424" y1="140.2256110222079" x2="218.39593946002424" y2="146.2256110222079" stroke="#ff4444" stroke-width="0.5" opacity="0.31378777981735767"/>
  <circle cx="218.4" cy="143.2" r="1.4" fill="#ff4444" opacity="0.6275755596347153"/>
  <circle cx="225.8" cy="172.4" r="0.8" fill="#ff4444" opacity="0.2995800573611632"/>
  <circle cx="119.2" cy="414.6" r="1.3" fill="#ff4444" opacity="0.42280865830834957"/>
  <circle cx="381.3" cy="393.4" r="0.6" fill="#ff4444" opacity="0.468306292174384"/>
  <line x1="342.2981459861621" y1="86.80975669296458" x2="348.2981459861621" y2="86.80975669296458" stroke="#ff4444" stroke-width="0.5" opacity="0.09661241037538275"/>
  <line x1="345.2981459861621" y1="83.80975669296458" x2="345.2981459861621" y2="89.80975669296458" stroke="#ff4444" stroke-width="0.5" opacity="0.09661241037538275"/>
  <circle cx="345.3" cy="86.8" r="1.2" fill="#ff4444" opacity="0.1932248207507655"/>
  <circle cx="164.5" cy="231.1" r="1.1" fill="#ff4444" opacity="0.6069862321950495"/>
  <circle cx="488.9" cy="430.5" r="1.8" fill="#ff4444" opacity="0.29308901107870045"/>
  <circle cx="81.3" cy="433.2" r="1.6" fill="#ff4444" opacity="0.5991046349285171"/>
  <circle cx="195.1" cy="267.9" r="0.7" fill="#ff4444" opacity="0.5330936671001837"/>
  <circle cx="170.3" cy="382.9" r="1.5" fill="#ff4444" opacity="0.2307879865169525"/>
  <circle cx="309.0" cy="390.3" r="0.4" fill="#ff4444" opacity="0.5273565570591018"/>
  <circle cx="344.3" cy="452.7" r="1.2" fill="#ff4444" opacity="0.3207286017481238"/>
  <circle cx="398.3" cy="360.9" r="0.9" fill="#ff4444" opacity="0.44700228606816383"/>
  <circle cx="221.3" cy="59.1" r="0.3" fill="#ff4444" opacity="0.574175123218447"/>
  <circle cx="196.4" cy="361.5" r="0.8" fill="#ff4444" opacity="0.2672523454297334"/>
  <circle cx="91.1" cy="213.4" r="1.2" fill="#ff4444" opacity="0.6283917947206646"/>
  <circle cx="86.0" cy="99.7" r="1.2" fill="#ff4444" opacity="0.2164710598066449"/>
  <circle cx="471.3" cy="335.6" r="1.1" fill="#ff4444" opacity="0.248125854274258"/>
  <circle cx="479.2" cy="208.6" r="0.5" fill="#ff4444" opacity="0.21051378324627876"/>
  <circle cx="373.9" cy="277.2" r="1.1" fill="#ff4444" opacity="0.42125191350933167"/>
  <circle cx="116.0" cy="325.4" r="0.6" fill="#ff4444" opacity="0.35188014872837814"/>
  <circle cx="9.9" cy="167.8" r="1.3" fill="#ff4444" opacity="0.5973157858010382"/>
  <circle cx="234.0" cy="45.6" r="1.1" fill="#ff4444" opacity="0.5711016386980191"/>
  <circle cx="482.4" cy="381.0" r="0.8" fill="#ff4444" opacity="0.2109635809669271"/>
  <circle cx="238.0" cy="16.2" r="1.5" fill="#ff4444" opacity="0.15905948888976126"/>
  <circle cx="83.9" cy="27.1" r="1.5" fill="#ff4444" opacity="0.410492863599211"/>
  <line x1="328.09673612052575" y1="337.24486587103456" x2="334.09673612052575" y2="337.24486587103456" stroke="#ff4444" stroke-width="0.5" opacity="0.07997487082611769"/>
  <line x1="331.09673612052575" y1="334.24486587103456" x2="331.09673612052575" y2="340.24486587103456" stroke="#ff4444" stroke-width="0.5" opacity="0.07997487082611769"/>
  <circle cx="331.1" cy="337.2" r="1.6" fill="#ff4444" opacity="0.15994974165223538"/>
  <line x1="330.4828113997355" y1="308.55541164055467" x2="336.4828113997355" y2="308.55541164055467" stroke="#ff4444" stroke-width="0.5" opacity="0.210287020704709"/>
  <line x1="333.4828113997355" y1="305.55541164055467" x2="333.4828113997355" y2="311.55541164055467" stroke="#ff4444" stroke-width="0.5" opacity="0.210287020704709"/>
  <circle cx="333.5" cy="308.6" r="1.4" fill="#ff4444" opacity="0.420574041409418"/>
  <circle cx="156.2" cy="247.1" r="0.6" fill="#ff4444" opacity="0.5326561361784116"/>
  <circle cx="368.0" cy="387.3" r="1.1" fill="#ff4444" opacity="0.3999275583541021"/>
  <rect width="500" height="500" fill="url(#core-glow)"/>

  <!-- Frame -->
  <rect x="4" y="4" width="492" height="492" rx="14" fill="none" stroke="#ff4444" stroke-opacity="0.25" stroke-width="1.5"/>
  <rect x="4" y="4" width="492" height="492" rx="14" fill="none" stroke="#ff4444" stroke-opacity="0.4" stroke-width="3"/>
  <rect x="12" y="12" width="476" height="476" rx="10" fill="none" stroke="#ff4444" stroke-opacity="0.15" stroke-width="1.5"/>
  <path d="M 40.0 4 L 40.0 13.4 L 46.0 9.6" fill="none" stroke="#ff4444" stroke-width="1.5" opacity="0.35"/>
  <path d="M 100.0 4 L 100.0 13.5 L 106.0 9.7" fill="none" stroke="#ff4444" stroke-width="1.5" opacity="0.35"/>
  <path d="M 160.0 4 L 160.0 17.8 L 166.0 12.3" fill="none" stroke="#ff4444" stroke-width="1.5" opacity="0.35"/>
  <path d="M 220.0 4 L 220.0 12.4 L 226.0 9.0" fill="none" stroke="#ff4444" stroke-width="1.5" opacity="0.35"/>
  <path d="M 280.0 4 L 280.0 14.9 L 286.0 10.5" fill="none" stroke="#ff4444" stroke-width="1.5" opacity="0.35"/>
  <path d="M 340.0 4 L 340.0 14.3 L 346.0 10.2" fill="none" stroke="#ff4444" stroke-width="1.5" opacity="0.35"/>
  <path d="M 400.0 4 L 400.0 15.4 L 406.0 10.8" fill="none" stroke="#ff4444" stroke-width="1.5" opacity="0.35"/>
  <path d="M 460.0 4 L 460.0 13.3 L 466.0 9.6" fill="none" stroke="#ff4444" stroke-width="1.5" opacity="0.35"/>
  <polygon points="20,492 26,486 32,492 26,498" fill="#ff4444" opacity="0.2"/>
  <polygon points="480,492 486,486 492,492 486,498" fill="#ff4444" opacity="0.2"/>

  <!-- Corner decorations -->
  <path d="M 8 14 L 10 9 L 12 13 L 14 9 L 16 14" fill="none" stroke="#ff4444" stroke-width="1" opacity="0.35"/>
  <path d="M 484 14 L 486 9 L 488 13 L 490 9 L 492 14" fill="none" stroke="#ff4444" stroke-width="1" opacity="0.35"/>
  <path d="M 8 490 L 10 485 L 12 489 L 14 485 L 16 490" fill="none" stroke="#ff4444" stroke-width="1" opacity="0.35"/>
  <path d="M 484 490 L 486 485 L 488 489 L 490 485 L 492 490" fill="none" stroke="#ff4444" stroke-width="1" opacity="0.35"/>

  <!-- Orbital rings -->
  <g class="float">
    <ellipse cx="250" cy="250" rx="59.5" ry="20.8"
      fill="none" stroke="#ff4444" stroke-width="0.8" opacity="0.21"
      stroke-dasharray="5.1517112026922405,5.842813155148178" transform="rotate(289.0 250 250)" class="orbit-0"/>
    <circle cx="269.3" cy="230.3" r="2" fill="#ff6666" opacity="0.4" class="orbital-body-0-0"/>
    <circle cx="230.7" cy="269.7" r="2" fill="#ff6666" opacity="0.4" class="orbital-body-0-1"/>
    <ellipse cx="250" cy="250" rx="92.7" ry="39.9"
      fill="none" stroke="#ff4444" stroke-width="1.1" opacity="0.27"
      stroke-dasharray="4.9717974830418825,6.059354675468057" transform="rotate(295.5 250 250)" class="orbit-1"/>
    <circle cx="289.9" cy="214.0" r="2" fill="#ff6666" opacity="0.4" class="orbital-body-1-0"/>
    <circle cx="210.1" cy="286.0" r="2" fill="#ff6666" opacity="0.4" class="orbital-body-1-1"/>
    <ellipse cx="250" cy="250" rx="125.2" ry="63.9"
      fill="none" stroke="#ff4444" stroke-width="1.4" opacity="0.32999999999999996"
      stroke-dasharray="3.704562147613615,6.927774712676182" transform="rotate(213.4 250 250)" class="orbit-2"/>
    <circle cx="145.5" cy="214.8" r="2" fill="#ff6666" opacity="0.4" class="orbital-body-2-0"/>
    <circle cx="354.5" cy="285.2" r="2" fill="#ff6666" opacity="0.4" class="orbital-body-2-1"/>
  </g>

  <!-- Mandala (higher tiers) -->
  <g class="pulse">
    <path d="M 290.6 250.0
      Q 299.2 257.4
        308.9 250.0"
      fill="none" stroke="#ff4444" stroke-width="1" opacity="0.12" stroke-linecap="round"/>
    <path d="M 308.9 250.0 Q 316.5 274.2 295.1 287.9"
      fill="none" stroke="#ff4444" stroke-width="0.5" opacity="0.06"/>
    <path d="M 281.1 276.1
      Q 285.7 284.7
        295.1 287.9"
      fill="none" stroke="#ff4444" stroke-width="1" opacity="0.12" stroke-linecap="round"/>
    <path d="M 295.1 287.9 Q 285.4 311.2 260.2 308.0"
      fill="none" stroke="#ff4444" stroke-width="0.5" opacity="0.06"/>
    <path d="M 257.1 290.0
      Q 260.3 298.7
        260.2 308.0"
      fill="none" stroke="#ff4444" stroke-width="1" opacity="0.12" stroke-linecap="round"/>
    <path d="M 260.2 308.0 Q 237.7 319.6 220.5 301.0"
      fill="none" stroke="#ff4444" stroke-width="0.5" opacity="0.06"/>
    <path d="M 229.7 285.2
      Q 231.0 296.0
        220.5 301.0"
      fill="none" stroke="#ff4444" stroke-width="1" opacity="0.12" stroke-linecap="round"/>
    <path d="M 220.5 301.0 Q 195.8 295.5 194.6 270.2"
      fill="none" stroke="#ff4444" stroke-width="0.5" opacity="0.06"/>
    <path d="M 211.8 263.9
      Q 202.3 264.1
        194.6 270.2"
      fill="none" stroke="#ff4444" stroke-width="1" opacity="0.12" stroke-linecap="round"/>
    <path d="M 194.6 270.2 Q 179.3 250.0 194.6 229.8"
      fill="none" stroke="#ff4444" stroke-width="0.5" opacity="0.06"/>
    <path d="M 211.8 236.1
      Q 201.3 239.5
        194.6 229.8"
      fill="none" stroke="#ff4444" stroke-width="1" opacity="0.12" stroke-linecap="round"/>
    <path d="M 194.6 229.8 Q 195.8 204.5 220.5 199.0"
      fill="none" stroke="#ff4444" stroke-width="0.5" opacity="0.06"/>
    <path d="M 229.7 214.8
      Q 225.6 206.6
        220.5 199.0"
      fill="none" stroke="#ff4444" stroke-width="1" opacity="0.12" stroke-linecap="round"/>
    <path d="M 220.5 199.0 Q 237.7 180.4 260.2 192.0"
      fill="none" stroke="#ff4444" stroke-width="0.5" opacity="0.06"/>
    <path d="M 257.1 210.0
      Q 257.5 200.8
        260.2 192.0"
      fill="none" stroke="#ff4444" stroke-width="1" opacity="0.12" stroke-linecap="round"/>
    <path d="M 260.2 192.0 Q 285.4 188.8 295.1 212.1"
      fill="none" stroke="#ff4444" stroke-width="0.5" opacity="0.06"/>
    <path d="M 281.1 223.9
      Q 290.1 220.4
        295.1 212.1"
      fill="none" stroke="#ff4444" stroke-width="1" opacity="0.12" stroke-linecap="round"/>
    <path d="M 295.1 212.1 Q 316.5 225.8 308.9 250.0"
      fill="none" stroke="#ff4444" stroke-width="0.5" opacity="0.06"/>
    <circle cx="250" cy="250" r="40.63614569604397" fill="none" stroke="#ff4444" stroke-width="0.8" opacity="0.1" stroke-dasharray="2,4"/>
  </g>

  <!-- Class emblem (the main artwork) -->
  <g class="pulse" opacity="1">
    <circle cx="250" cy="225" r="72" fill="url(#wraith-void)" opacity="0.6"/>
    <path d="M 273.9 227.1
      C 288.7 232.4
        320.6 246.0
        330.4 232.1"
      fill="none" stroke="#ff4444" stroke-width="1.888195114559494" opacity="0.2" stroke-linecap="round"/>
    <path d="M 272.2 234.1
      C 289.2 228.5
        316.7 256.4
        350.7 254.8"
      fill="none" stroke="#ff6666" stroke-width="0.8" opacity="0.12" stroke-linecap="round"/>
    <path d="M 261.4 246.1
      C 270.0 260.6
        297.4 282.2
        280.3 281.1"
      fill="none" stroke="#ff4444" stroke-width="1.993615957093425" opacity="0.24000000000000002" stroke-linecap="round"/>
    <path d="M 254.6 248.5
      C 273.4 258.4
        288.4 288.6
        277.2 314.7"
      fill="none" stroke="#ff6666" stroke-width="0.8" opacity="0.12" stroke-linecap="round"/>
    <path d="M 235.5 244.1
      C 227.3 253.1
        224.0 283.0
        192.2 300.9"
      fill="none" stroke="#ff4444" stroke-width="2.1373932819115" opacity="0.28" stroke-linecap="round"/>
    <path d="M 230.5 238.9
      C 230.2 255.3
        215.7 278.5
        178.9 287.3"
      fill="none" stroke="#ff6666" stroke-width="0.8" opacity="0.12" stroke-linecap="round"/>
    <path d="M 226.0 226.0
      C 201.0 228.9
        188.8 223.5
        167.4 228.6"
      fill="none" stroke="#ff4444" stroke-width="1.5667588114738464" opacity="0.32" stroke-linecap="round"/>
    <path d="M 226.8 218.9
      C 201.6 233.8
        189.7 214.3
        155.2 210.0"
      fill="none" stroke="#ff6666" stroke-width="0.8" opacity="0.12" stroke-linecap="round"/>
    <path d="M 240.0 203.2
      C 235.8 190.3
        213.8 150.0
        217.2 153.2"
      fill="none" stroke="#ff4444" stroke-width="1.9546313140308484" opacity="0.36" stroke-linecap="round"/>
    <path d="M 246.9 201.2
      C 232.4 191.9
        225.4 145.4
        228.0 130.5"
      fill="none" stroke="#ff6666" stroke-width="0.8" opacity="0.12" stroke-linecap="round"/>
    <path d="M 264.3 205.7
      C 274.8 194.5
        295.1 168.4
        289.4 171.9"
      fill="none" stroke="#ff4444" stroke-width="1.7894943483406678" opacity="0.4" stroke-linecap="round"/>
    <path d="M 269.3 210.8
      C 271.7 192.2
        303.1 175.8
        318.9 163.0"
      fill="none" stroke="#ff6666" stroke-width="0.8" opacity="0.12" stroke-linecap="round"/>
    <circle cx="250" cy="225" r="14.399999999999999" fill="#ff6666" opacity="0.3" filter="url(#glow-strong)"/>
    <circle cx="250" cy="225" r="4.8" fill="#000000" opacity="0.8"/>
    <circle cx="323.6" cy="205.9"
      r="2.7477264893241227" fill="#ff6666" opacity="0.24110957668162883" class="anim-particle-0"/>
    <circle cx="206.7" cy="264.1"
      r="1.5532725197263062" fill="#ff6666" opacity="0.14697460854658856" class="anim-particle-1"/>
    <circle cx="189.3" cy="208.4"
      r="1.851025969721377" fill="#ff6666" opacity="0.18472553733736277" class="anim-particle-2"/>
    <circle cx="208.9" cy="253.4"
      r="1.1921012857928872" fill="#ff6666" opacity="0.1556766425841488" class="anim-particle-3"/>
    <circle cx="262.4" cy="267.9"
      r="1.883141862694174" fill="#ff6666" opacity="0.1645510556991212" class="anim-particle-4"/>
  </g>

  <!-- Center sigil symbol -->
  <text x="250" y="238" text-anchor="middle" font-size="38.5"
    fill="#ff6666" opacity="0.8" filter="url(#glow-strong)"
    font-family="serif" class="pulse">♰</text>

  <!-- Class keyword badge (with text backing for legibility) -->
  <rect x="195" y="168" width="110" height="26" rx="4" fill="#35000a" opacity="0.5"/>
  <text x="250" y="178" text-anchor="middle" font-size="10" fill="#ff4444"
    opacity="0.85" font-family="monospace" font-weight="bold" letter-spacing="3">SHADE</text>
  <text x="250" y="190" text-anchor="middle" font-size="8" fill="#ff6666"
    opacity="0.5" font-family="monospace" letter-spacing="2">WRAITH</text>

  <!-- Prestige number (top) -->
  <text x="250" y="145" text-anchor="middle" font-size="9" fill="#ff6666"
    opacity="0.4" font-family="monospace" letter-spacing="2">PRESTIGE</text>
  <text x="250" y="158" text-anchor="middle" font-size="22" font-weight="bold"
    fill="#ff4444" filter="url(#glow-soft)" font-family="monospace">
    #051
  </text>

  <!-- Gems -->
  <polygon points="293.9434504764289,330.66921278392414 297.1,334.9 295.8,339.1 293.9434504764289,341.2 292.1,339.1 290.8,334.9"
      fill="#ff4444" opacity="0.6" filter="url(#glow-gem)"/>
    <polygon points="293.9434504764289,330.66921278392414 290.8,334.9 293.9434504764289,335.94588329759875 297.1,334.9"
      fill="#ffffff" opacity="0.15"/>
    <circle cx="292.88811637369395" cy="334.3628821434964" r="1.0553341027349235" fill="#ffffff" opacity="0.25" class="anim-gem-0"/>
    <polygon points="262.1690994760805,164.83927937846212 266.0,169.9 264.4,175.0 262.1690994760805,177.5 260.0,175.0 258.4,169.9"
      fill="#ff4444" opacity="0.6" filter="url(#glow-gem)"/>
    <polygon points="262.1690994760805,164.83927937846212 258.4,169.9 262.1690994760805,171.16078097249894 266.0,169.9"
      fill="#ffffff" opacity="0.15"/>
    <circle cx="260.9047991572731" cy="169.2643304942879" r="1.2643003188073636" fill="#ffffff" opacity="0.25" class="anim-gem-1"/>
    <polygon points="217.5726751523218,163.95736744312975 224.1,172.6 221.4,181.3 217.5726751523218,185.6 213.8,181.3 211.1,172.6"
      fill="#ff4444" opacity="0.6" filter="url(#glow-gem)"/>
    <polygon points="217.5726751523218,163.95736744312975 211.1,172.6 217.5726751523218,174.80324539600346 224.1,172.6"
      fill="#ffffff" opacity="0.15"/>
    <circle cx="215.40349956174705" cy="171.54948201014136" r="2.1691755905747416" fill="#ffffff" opacity="0.25" class="anim-gem-2"/>
    <polygon points="193.23995371274881,181.00905995079407 199.6,189.5 197.0,198.0 193.23995371274881,202.2 189.5,198.0 186.9,189.5"
      fill="#ff4444" opacity="0.6" filter="url(#glow-gem)"/>
    <polygon points="193.23995371274881,181.00905995079407 186.9,189.5 193.23995371274881,191.60991742656657 199.6,189.5"
      fill="#ffffff" opacity="0.15"/>
    <circle cx="191.11978221759432" cy="188.4296601838348" r="2.1201714951545" fill="#ffffff" opacity="0.25" class="anim-gem-3"/>

  <!-- Tier badge (bottom center) -->
  <rect x="175" y="440" width="150" height="26" rx="13" fill="#35000a"
    stroke="#ff4444" stroke-opacity="0.3" stroke-width="1"/>
  <text x="250" y="458" text-anchor="middle" font-size="11" fill="#ff4444"
    font-family="monospace" font-weight="bold">Grandmaster</text>

  <!-- Progress dots -->
  <circle cx="205.0" cy="474" r="2" fill="#ff4444" opacity="0.15" class="pulse-fast"/>
    <circle cx="215.0" cy="474" r="2" fill="#ff4444" opacity="0.27" class=""/>
    <circle cx="225.0" cy="474" r="2" fill="#ff4444" opacity="0.38" class="pulse-fast"/>
    <circle cx="235.0" cy="474" r="2" fill="#ff4444" opacity="0.50" class=""/>
    <circle cx="245.0" cy="474" r="2" fill="#ff4444" opacity="0.62" class="pulse-fast"/>
    <circle cx="255.0" cy="474" r="2" fill="#ff4444" opacity="0.73" class=""/>

  <!-- Rune text ring (archived path) -->
  <path id="rune-path" d="M 75 410 A 175 55 0 1 1 425 410" fill="none"/>
  <text font-size="6" fill="#ff4444" opacity="0.2" font-family="monospace">
    <textPath href="#rune-path">
      ✦ GRANDMASTER ✦ WRAITH ✦ PRESTIGE #51 ✦ ✦ ✦ ✦
      ✦ GRANDMASTER ✦ WRAITH ✦ PRESTIGE #51 ✦
    </textPath>
  </text>

  <!-- Corner accent glow particles -->
  <circle cx="15" cy="15" r="2" fill="#ff4444" opacity="0.3"
      class="pulse-fast" style="animation-delay: 0s"/>
  <circle cx="485" cy="15" r="2" fill="#ff4444" opacity="0.3"
      class="pulse-fast" style="animation-delay: 0.4s"/>
  <circle cx="15" cy="485" r="2" fill="#ff4444" opacity="0.3"
      class="pulse-fast" style="animation-delay: 0.8s"/>
  <circle cx="485" cy="485" r="2" fill="#ff4444" opacity="0.3"
      class="pulse-fast" style="animation-delay: 1.2000000000000002s"/>

  <!-- Ambient floating particles -->
  <circle cx="432.1" cy="188.0" r="1.0701869647018611"
      fill="#ff4444" opacity="0.12469348998274654"
      class="pulse-fast" style="animation-delay: 0.0s"/>
  <circle cx="99.8" cy="46.0" r="0.8947596561629325"
      fill="#ff4444" opacity="0.15951693407259881"
      class="pulse-fast" style="animation-delay: 0.3s"/>
  <circle cx="80.8" cy="177.2" r="1.0965857347473502"
      fill="#ff4444" opacity="0.247635679168161"
      class="pulse-fast" style="animation-delay: 0.6s"/>
  <circle cx="220.3" cy="441.4" r="0.7709088590927422"
      fill="#ff4444" opacity="0.11938326336676255"
      class="pulse-fast" style="animation-delay: 0.9s"/>
  <circle cx="382.8" cy="245.4" r="0.6468251545447856"
      fill="#ff4444" opacity="0.14006485604913904"
      class="pulse-fast" style="animation-delay: 1.2s"/>
  <circle cx="326.4" cy="442.1" r="0.8599588766228408"
      fill="#ff4444" opacity="0.17752313585951923"
      class="pulse-fast" style="animation-delay: 1.5s"/>
  <circle cx="399.7" cy="390.4" r="1.0368789492640644"
      fill="#ff4444" opacity="0.1964762925170362"
      class="pulse-fast" style="animation-delay: 1.8s"/>
  <circle cx="181.8" cy="243.3" r="0.6821853083092719"
      fill="#ff4444" opacity="0.17224861101713032"
      class="pulse-fast" style="animation-delay: 2.1s"/>

  <!-- Seed signature (micro watermark bottom-right) -->
  <text x="490" y="492" text-anchor="end" font-size="5" fill="#ff4444"
    opacity="0.12" font-family="monospace">#5555</text>
</svg>